<mxfile host="app.diagrams.net" agent="Mozilla/5.0 (Windows NT 10.0; Win64; x64) AppleWebKit/537.36 (KHTML, like Gecko) Chrome/131.0.0.0 Safari/537.36" version="25.0.3">
  <diagram name="Puslapis-1" id="iBoKh7ATms6ybF2hCDMy">
    <mxGraphModel dx="1434" dy="1907" grid="1" gridSize="10" guides="1" tooltips="1" connect="1" arrows="1" fold="1" page="1" pageScale="1" pageWidth="827" pageHeight="1169" math="0" shadow="0">
      <root>
        <mxCell id="0" />
        <mxCell id="1" parent="0" />
        <mxCell id="14PQxSVh-7b8uBAHnWf6-1" value="Savaitgalio veiklos pasirinkimas" style="whiteSpace=wrap;html=1;aspect=fixed;" vertex="1" parent="1">
          <mxGeometry x="30" y="520" width="80" height="80" as="geometry" />
        </mxCell>
        <mxCell id="14PQxSVh-7b8uBAHnWf6-2" value="" style="endArrow=none;html=1;rounded=0;" edge="1" parent="1">
          <mxGeometry width="50" height="50" relative="1" as="geometry">
            <mxPoint x="120" y="530" as="sourcePoint" />
            <mxPoint x="170" y="190" as="targetPoint" />
          </mxGeometry>
        </mxCell>
        <mxCell id="14PQxSVh-7b8uBAHnWf6-3" value="" style="endArrow=none;html=1;rounded=0;" edge="1" parent="1">
          <mxGeometry width="50" height="50" relative="1" as="geometry">
            <mxPoint x="130" y="590" as="sourcePoint" />
            <mxPoint x="170" y="850" as="targetPoint" />
          </mxGeometry>
        </mxCell>
        <mxCell id="14PQxSVh-7b8uBAHnWf6-4" value="Saulėta" style="ellipse;whiteSpace=wrap;html=1;aspect=fixed;" vertex="1" parent="1">
          <mxGeometry x="180" y="120" width="80" height="80" as="geometry" />
        </mxCell>
        <mxCell id="14PQxSVh-7b8uBAHnWf6-5" value="Lietinga" style="ellipse;whiteSpace=wrap;html=1;aspect=fixed;" vertex="1" parent="1">
          <mxGeometry x="190" y="820" width="80" height="80" as="geometry" />
        </mxCell>
        <mxCell id="14PQxSVh-7b8uBAHnWf6-6" value="" style="endArrow=none;html=1;rounded=0;" edge="1" parent="1">
          <mxGeometry width="50" height="50" relative="1" as="geometry">
            <mxPoint x="280" y="130" as="sourcePoint" />
            <mxPoint x="330" y="80" as="targetPoint" />
          </mxGeometry>
        </mxCell>
        <mxCell id="14PQxSVh-7b8uBAHnWf6-7" value="" style="endArrow=none;html=1;rounded=0;" edge="1" parent="1">
          <mxGeometry width="50" height="50" relative="1" as="geometry">
            <mxPoint x="280" y="180" as="sourcePoint" />
            <mxPoint x="330" y="210" as="targetPoint" />
          </mxGeometry>
        </mxCell>
        <mxCell id="14PQxSVh-7b8uBAHnWf6-8" value="" style="endArrow=none;html=1;rounded=0;" edge="1" parent="1">
          <mxGeometry width="50" height="50" relative="1" as="geometry">
            <mxPoint x="290" y="840" as="sourcePoint" />
            <mxPoint x="340" y="790" as="targetPoint" />
          </mxGeometry>
        </mxCell>
        <mxCell id="14PQxSVh-7b8uBAHnWf6-9" value="" style="endArrow=none;html=1;rounded=0;" edge="1" parent="1">
          <mxGeometry width="50" height="50" relative="1" as="geometry">
            <mxPoint x="290" y="890" as="sourcePoint" />
            <mxPoint x="340" y="920" as="targetPoint" />
          </mxGeometry>
        </mxCell>
        <mxCell id="14PQxSVh-7b8uBAHnWf6-17" value="Energingi" style="ellipse;whiteSpace=wrap;html=1;aspect=fixed;" vertex="1" parent="1">
          <mxGeometry x="360" y="730" width="80" height="80" as="geometry" />
        </mxCell>
        <mxCell id="14PQxSVh-7b8uBAHnWf6-18" value="Pavargę" style="ellipse;whiteSpace=wrap;html=1;aspect=fixed;" vertex="1" parent="1">
          <mxGeometry x="360" y="920" width="80" height="80" as="geometry" />
        </mxCell>
        <mxCell id="14PQxSVh-7b8uBAHnWf6-30" value="Energingi" style="ellipse;whiteSpace=wrap;html=1;aspect=fixed;" vertex="1" parent="1">
          <mxGeometry x="350" y="25" width="80" height="80" as="geometry" />
        </mxCell>
        <mxCell id="14PQxSVh-7b8uBAHnWf6-31" value="Pavargę" style="ellipse;whiteSpace=wrap;html=1;aspect=fixed;" vertex="1" parent="1">
          <mxGeometry x="350" y="215" width="80" height="80" as="geometry" />
        </mxCell>
        <mxCell id="14PQxSVh-7b8uBAHnWf6-32" value="" style="endArrow=none;html=1;rounded=0;" edge="1" parent="1">
          <mxGeometry width="50" height="50" relative="1" as="geometry">
            <mxPoint x="450" y="35" as="sourcePoint" />
            <mxPoint x="510" y="-120" as="targetPoint" />
          </mxGeometry>
        </mxCell>
        <mxCell id="14PQxSVh-7b8uBAHnWf6-33" value="" style="endArrow=none;html=1;rounded=0;" edge="1" parent="1">
          <mxGeometry width="50" height="50" relative="1" as="geometry">
            <mxPoint x="450" y="85" as="sourcePoint" />
            <mxPoint x="510" y="60" as="targetPoint" />
          </mxGeometry>
        </mxCell>
        <mxCell id="14PQxSVh-7b8uBAHnWf6-34" value="" style="endArrow=none;html=1;rounded=0;" edge="1" parent="1">
          <mxGeometry width="50" height="50" relative="1" as="geometry">
            <mxPoint x="450" y="235" as="sourcePoint" />
            <mxPoint x="500" y="185" as="targetPoint" />
          </mxGeometry>
        </mxCell>
        <mxCell id="14PQxSVh-7b8uBAHnWf6-35" value="" style="endArrow=none;html=1;rounded=0;" edge="1" parent="1">
          <mxGeometry width="50" height="50" relative="1" as="geometry">
            <mxPoint x="450" y="285" as="sourcePoint" />
            <mxPoint x="510" y="350" as="targetPoint" />
          </mxGeometry>
        </mxCell>
        <mxCell id="14PQxSVh-7b8uBAHnWf6-37" value="Krepšinis" style="triangle;whiteSpace=wrap;html=1;rotation=-180;" vertex="1" parent="1">
          <mxGeometry x="680" y="-120" width="60" height="80" as="geometry" />
        </mxCell>
        <mxCell id="14PQxSVh-7b8uBAHnWf6-46" value="Draugai bus" style="ellipse;whiteSpace=wrap;html=1;aspect=fixed;" vertex="1" parent="1">
          <mxGeometry x="520" y="-170" width="80" height="80" as="geometry" />
        </mxCell>
        <mxCell id="14PQxSVh-7b8uBAHnWf6-47" value="Nebus" style="ellipse;whiteSpace=wrap;html=1;aspect=fixed;" vertex="1" parent="1">
          <mxGeometry x="520" y="20" width="80" height="80" as="geometry" />
        </mxCell>
        <mxCell id="14PQxSVh-7b8uBAHnWf6-48" value="" style="endArrow=none;html=1;rounded=0;" edge="1" parent="1">
          <mxGeometry width="50" height="50" relative="1" as="geometry">
            <mxPoint x="620" y="-160" as="sourcePoint" />
            <mxPoint x="670" y="-210" as="targetPoint" />
          </mxGeometry>
        </mxCell>
        <mxCell id="14PQxSVh-7b8uBAHnWf6-49" value="" style="endArrow=none;html=1;rounded=0;" edge="1" parent="1">
          <mxGeometry width="50" height="50" relative="1" as="geometry">
            <mxPoint x="620" y="-110" as="sourcePoint" />
            <mxPoint x="670" y="-80" as="targetPoint" />
          </mxGeometry>
        </mxCell>
        <mxCell id="14PQxSVh-7b8uBAHnWf6-50" value="" style="endArrow=none;html=1;rounded=0;" edge="1" parent="1">
          <mxGeometry width="50" height="50" relative="1" as="geometry">
            <mxPoint x="620" y="40" as="sourcePoint" />
            <mxPoint x="670" y="-10" as="targetPoint" />
          </mxGeometry>
        </mxCell>
        <mxCell id="14PQxSVh-7b8uBAHnWf6-51" value="" style="endArrow=none;html=1;rounded=0;" edge="1" parent="1">
          <mxGeometry width="50" height="50" relative="1" as="geometry">
            <mxPoint x="620" y="90" as="sourcePoint" />
            <mxPoint x="680" y="90" as="targetPoint" />
          </mxGeometry>
        </mxCell>
        <mxCell id="14PQxSVh-7b8uBAHnWf6-52" value="Draugai bus" style="ellipse;whiteSpace=wrap;html=1;aspect=fixed;" vertex="1" parent="1">
          <mxGeometry x="520" y="140" width="80" height="80" as="geometry" />
        </mxCell>
        <mxCell id="14PQxSVh-7b8uBAHnWf6-53" value="Nebus" style="ellipse;whiteSpace=wrap;html=1;aspect=fixed;" vertex="1" parent="1">
          <mxGeometry x="520" y="330" width="80" height="80" as="geometry" />
        </mxCell>
        <mxCell id="14PQxSVh-7b8uBAHnWf6-54" value="" style="endArrow=none;html=1;rounded=0;" edge="1" parent="1">
          <mxGeometry width="50" height="50" relative="1" as="geometry">
            <mxPoint x="620" y="150" as="sourcePoint" />
            <mxPoint x="680" y="150" as="targetPoint" />
          </mxGeometry>
        </mxCell>
        <mxCell id="14PQxSVh-7b8uBAHnWf6-55" value="" style="endArrow=none;html=1;rounded=0;" edge="1" parent="1">
          <mxGeometry width="50" height="50" relative="1" as="geometry">
            <mxPoint x="620" y="200" as="sourcePoint" />
            <mxPoint x="670" y="230" as="targetPoint" />
          </mxGeometry>
        </mxCell>
        <mxCell id="14PQxSVh-7b8uBAHnWf6-56" value="" style="endArrow=none;html=1;rounded=0;" edge="1" parent="1">
          <mxGeometry width="50" height="50" relative="1" as="geometry">
            <mxPoint x="620" y="350" as="sourcePoint" />
            <mxPoint x="670" y="330" as="targetPoint" />
          </mxGeometry>
        </mxCell>
        <mxCell id="14PQxSVh-7b8uBAHnWf6-57" value="" style="endArrow=none;html=1;rounded=0;" edge="1" parent="1">
          <mxGeometry width="50" height="50" relative="1" as="geometry">
            <mxPoint x="620" y="400" as="sourcePoint" />
            <mxPoint x="670" y="430" as="targetPoint" />
          </mxGeometry>
        </mxCell>
        <mxCell id="14PQxSVh-7b8uBAHnWf6-58" value="" style="endArrow=none;html=1;rounded=0;" edge="1" parent="1">
          <mxGeometry width="50" height="50" relative="1" as="geometry">
            <mxPoint x="450" y="735" as="sourcePoint" />
            <mxPoint x="510" y="580" as="targetPoint" />
          </mxGeometry>
        </mxCell>
        <mxCell id="14PQxSVh-7b8uBAHnWf6-59" value="" style="endArrow=none;html=1;rounded=0;" edge="1" parent="1">
          <mxGeometry width="50" height="50" relative="1" as="geometry">
            <mxPoint x="450" y="785" as="sourcePoint" />
            <mxPoint x="510" y="760" as="targetPoint" />
          </mxGeometry>
        </mxCell>
        <mxCell id="14PQxSVh-7b8uBAHnWf6-60" value="" style="endArrow=none;html=1;rounded=0;" edge="1" parent="1">
          <mxGeometry width="50" height="50" relative="1" as="geometry">
            <mxPoint x="450" y="935" as="sourcePoint" />
            <mxPoint x="500" y="885" as="targetPoint" />
          </mxGeometry>
        </mxCell>
        <mxCell id="14PQxSVh-7b8uBAHnWf6-61" value="" style="endArrow=none;html=1;rounded=0;" edge="1" parent="1">
          <mxGeometry width="50" height="50" relative="1" as="geometry">
            <mxPoint x="450" y="985" as="sourcePoint" />
            <mxPoint x="510" y="1050" as="targetPoint" />
          </mxGeometry>
        </mxCell>
        <mxCell id="14PQxSVh-7b8uBAHnWf6-62" value="Draugai bus" style="ellipse;whiteSpace=wrap;html=1;aspect=fixed;" vertex="1" parent="1">
          <mxGeometry x="520" y="530" width="80" height="80" as="geometry" />
        </mxCell>
        <mxCell id="14PQxSVh-7b8uBAHnWf6-63" value="Nebus" style="ellipse;whiteSpace=wrap;html=1;aspect=fixed;" vertex="1" parent="1">
          <mxGeometry x="520" y="720" width="80" height="80" as="geometry" />
        </mxCell>
        <mxCell id="14PQxSVh-7b8uBAHnWf6-64" value="" style="endArrow=none;html=1;rounded=0;" edge="1" parent="1">
          <mxGeometry width="50" height="50" relative="1" as="geometry">
            <mxPoint x="620" y="540" as="sourcePoint" />
            <mxPoint x="670" y="540" as="targetPoint" />
          </mxGeometry>
        </mxCell>
        <mxCell id="14PQxSVh-7b8uBAHnWf6-65" value="" style="endArrow=none;html=1;rounded=0;" edge="1" parent="1">
          <mxGeometry width="50" height="50" relative="1" as="geometry">
            <mxPoint x="620" y="590" as="sourcePoint" />
            <mxPoint x="670" y="620" as="targetPoint" />
          </mxGeometry>
        </mxCell>
        <mxCell id="14PQxSVh-7b8uBAHnWf6-66" value="" style="endArrow=none;html=1;rounded=0;" edge="1" parent="1">
          <mxGeometry width="50" height="50" relative="1" as="geometry">
            <mxPoint x="620" y="740" as="sourcePoint" />
            <mxPoint x="670" y="730" as="targetPoint" />
          </mxGeometry>
        </mxCell>
        <mxCell id="14PQxSVh-7b8uBAHnWf6-67" value="" style="endArrow=none;html=1;rounded=0;" edge="1" parent="1">
          <mxGeometry width="50" height="50" relative="1" as="geometry">
            <mxPoint x="620" y="790" as="sourcePoint" />
            <mxPoint x="670" y="810" as="targetPoint" />
          </mxGeometry>
        </mxCell>
        <mxCell id="14PQxSVh-7b8uBAHnWf6-68" value="Draugai bus" style="ellipse;whiteSpace=wrap;html=1;aspect=fixed;" vertex="1" parent="1">
          <mxGeometry x="520" y="840" width="80" height="80" as="geometry" />
        </mxCell>
        <mxCell id="14PQxSVh-7b8uBAHnWf6-69" value="Nebus" style="ellipse;whiteSpace=wrap;html=1;aspect=fixed;" vertex="1" parent="1">
          <mxGeometry x="520" y="1030" width="80" height="80" as="geometry" />
        </mxCell>
        <mxCell id="14PQxSVh-7b8uBAHnWf6-70" value="" style="endArrow=none;html=1;rounded=0;" edge="1" parent="1">
          <mxGeometry width="50" height="50" relative="1" as="geometry">
            <mxPoint x="620" y="850" as="sourcePoint" />
            <mxPoint x="670" y="890" as="targetPoint" />
          </mxGeometry>
        </mxCell>
        <mxCell id="14PQxSVh-7b8uBAHnWf6-71" value="" style="endArrow=none;html=1;rounded=0;" edge="1" parent="1">
          <mxGeometry width="50" height="50" relative="1" as="geometry">
            <mxPoint x="620" y="900" as="sourcePoint" />
            <mxPoint x="670" y="960" as="targetPoint" />
          </mxGeometry>
        </mxCell>
        <mxCell id="14PQxSVh-7b8uBAHnWf6-72" value="" style="endArrow=none;html=1;rounded=0;" edge="1" parent="1">
          <mxGeometry width="50" height="50" relative="1" as="geometry">
            <mxPoint x="620" y="1050" as="sourcePoint" />
            <mxPoint x="670" y="1060" as="targetPoint" />
          </mxGeometry>
        </mxCell>
        <mxCell id="14PQxSVh-7b8uBAHnWf6-73" value="" style="endArrow=none;html=1;rounded=0;" edge="1" parent="1">
          <mxGeometry width="50" height="50" relative="1" as="geometry">
            <mxPoint x="620" y="1100" as="sourcePoint" />
            <mxPoint x="670" y="1160" as="targetPoint" />
          </mxGeometry>
        </mxCell>
        <mxCell id="14PQxSVh-7b8uBAHnWf6-74" value="Futbolas" style="triangle;whiteSpace=wrap;html=1;rotation=-180;" vertex="1" parent="1">
          <mxGeometry x="680" y="-250" width="60" height="80" as="geometry" />
        </mxCell>
        <mxCell id="14PQxSVh-7b8uBAHnWf6-75" value="Sprintas" style="triangle;whiteSpace=wrap;html=1;rotation=-180;" vertex="1" parent="1">
          <mxGeometry x="680" y="-40" width="60" height="80" as="geometry" />
        </mxCell>
        <mxCell id="14PQxSVh-7b8uBAHnWf6-76" value="Atsilenkimai" style="triangle;whiteSpace=wrap;html=1;rotation=-180;" vertex="1" parent="1">
          <mxGeometry x="680" y="50" width="60" height="80" as="geometry" />
        </mxCell>
        <mxCell id="14PQxSVh-7b8uBAHnWf6-77" value="Gamta" style="triangle;whiteSpace=wrap;html=1;rotation=-180;" vertex="1" parent="1">
          <mxGeometry x="680" y="130" width="60" height="80" as="geometry" />
        </mxCell>
        <mxCell id="14PQxSVh-7b8uBAHnWf6-78" value="Šašlykai" style="triangle;whiteSpace=wrap;html=1;rotation=-180;" vertex="1" parent="1">
          <mxGeometry x="680" y="210" width="60" height="80" as="geometry" />
        </mxCell>
        <mxCell id="14PQxSVh-7b8uBAHnWf6-79" value="Televizorius" style="triangle;whiteSpace=wrap;html=1;rotation=-180;" vertex="1" parent="1">
          <mxGeometry x="680" y="295" width="60" height="80" as="geometry" />
        </mxCell>
        <mxCell id="14PQxSVh-7b8uBAHnWf6-80" value="Miegas" style="triangle;whiteSpace=wrap;html=1;rotation=-180;" vertex="1" parent="1">
          <mxGeometry x="680" y="390" width="60" height="80" as="geometry" />
        </mxCell>
        <mxCell id="14PQxSVh-7b8uBAHnWf6-81" value="Biliardas" style="triangle;whiteSpace=wrap;html=1;rotation=-180;" vertex="1" parent="1">
          <mxGeometry x="680" y="500" width="60" height="80" as="geometry" />
        </mxCell>
        <mxCell id="14PQxSVh-7b8uBAHnWf6-82" value="Boulingas" style="triangle;whiteSpace=wrap;html=1;rotation=-180;" vertex="1" parent="1">
          <mxGeometry x="680" y="590" width="60" height="80" as="geometry" />
        </mxCell>
        <mxCell id="14PQxSVh-7b8uBAHnWf6-84" value="Kulturizmas" style="triangle;whiteSpace=wrap;html=1;rotation=-180;" vertex="1" parent="1">
          <mxGeometry x="680" y="690" width="60" height="80" as="geometry" />
        </mxCell>
        <mxCell id="14PQxSVh-7b8uBAHnWf6-85" value="Kortos" style="triangle;whiteSpace=wrap;html=1;rotation=-180;" vertex="1" parent="1">
          <mxGeometry x="680" y="940" width="60" height="80" as="geometry" />
        </mxCell>
        <mxCell id="14PQxSVh-7b8uBAHnWf6-86" value="Baras" style="triangle;whiteSpace=wrap;html=1;rotation=-180;" vertex="1" parent="1">
          <mxGeometry x="680" y="850" width="60" height="80" as="geometry" />
        </mxCell>
        <mxCell id="14PQxSVh-7b8uBAHnWf6-87" value="Baseinas" style="triangle;whiteSpace=wrap;html=1;rotation=-180;" vertex="1" parent="1">
          <mxGeometry x="680" y="770" width="60" height="80" as="geometry" />
        </mxCell>
        <mxCell id="14PQxSVh-7b8uBAHnWf6-88" value="Miegas" style="triangle;whiteSpace=wrap;html=1;rotation=-180;" vertex="1" parent="1">
          <mxGeometry x="680" y="1030" width="60" height="80" as="geometry" />
        </mxCell>
        <mxCell id="14PQxSVh-7b8uBAHnWf6-89" value="Televizorius" style="triangle;whiteSpace=wrap;html=1;rotation=-180;" vertex="1" parent="1">
          <mxGeometry x="680" y="1130" width="60" height="80" as="geometry" />
        </mxCell>
      </root>
    </mxGraphModel>
  </diagram>
</mxfile>
